<svg width="270" height="117" viewBox="0 0 270 117" fill="none" xmlns="http://www.w3.org/2000/svg">
<path d="M39.235 52V37.368C39.235 35.5587 39.294 33.71 39.412 31.822C39.5693 29.8947 39.7267 28.282 39.884 26.984C40.0413 25.686 40.1397 24.86 40.179 24.506H39.943L32.45 52H22.243L14.691 24.565H14.455C14.4943 24.919 14.5927 25.745 14.75 27.043C14.9467 28.3017 15.1237 29.8947 15.281 31.822C15.4383 33.71 15.517 35.5587 15.517 37.368V52H3.54V11.408H21.948L28.084 34.831H28.32L34.397 11.408H52.156V52H39.235ZM84.3898 10.7C91.3912 10.7 96.7995 12.4897 100.615 16.069C104.43 19.6483 106.338 24.86 106.338 31.704C106.338 38.548 104.43 43.7597 100.615 47.339C96.7995 50.9183 91.3912 52.708 84.3898 52.708C77.3885 52.708 71.9802 50.938 68.1648 47.398C64.3888 43.8187 62.5008 38.5873 62.5008 31.704C62.5008 24.8207 64.3888 19.609 68.1648 16.069C71.9802 12.4897 77.3885 10.7 84.3898 10.7ZM84.3898 20.435C81.5972 20.435 79.4732 21.2807 78.0178 22.972C76.5625 24.6633 75.8348 26.9447 75.8348 29.816V33.592C75.8348 36.4633 76.5625 38.7447 78.0178 40.436C79.4732 42.1273 81.5972 42.973 84.3898 42.973C87.1825 42.973 89.3065 42.1273 90.7618 40.436C92.2565 38.7447 93.0038 36.4633 93.0038 33.592V29.816C93.0038 26.9447 92.2565 24.6633 90.7618 22.972C89.3065 21.2807 87.1825 20.435 84.3898 20.435ZM142.387 10.7C149.389 10.7 154.797 12.4897 158.612 16.069C162.428 19.6483 164.335 24.86 164.335 31.704C164.335 38.548 162.428 43.7597 158.612 47.339C154.797 50.9183 149.389 52.708 142.387 52.708C135.386 52.708 129.978 50.938 126.162 47.398C122.386 43.8187 120.498 38.5873 120.498 31.704C120.498 24.8207 122.386 19.609 126.162 16.069C129.978 12.4897 135.386 10.7 142.387 10.7ZM142.387 20.435C139.595 20.435 137.471 21.2807 136.015 22.972C134.56 24.6633 133.832 26.9447 133.832 29.816V33.592C133.832 36.4633 134.56 38.7447 136.015 40.436C137.471 42.1273 139.595 42.973 142.387 42.973C145.18 42.973 147.304 42.1273 148.759 40.436C150.254 38.7447 151.001 36.4633 151.001 33.592V29.816C151.001 26.9447 150.254 24.6633 148.759 22.972C147.304 21.2807 145.18 20.435 142.387 20.435Z" fill="#252525"/>
<path d="M27.12 63C33.24 63 38.08 64.54 41.64 67.62C45.2 70.66 46.98 75.02 46.98 80.7H34.32C34.32 78.3 33.68 76.4 32.4 75C31.16 73.6 29.38 72.9 27.06 72.9C24.38 72.9 22.4 73.74 21.12 75.42C19.88 77.1 19.26 79.44 19.26 82.44V86.28C19.26 89.24 19.88 91.58 21.12 93.3C22.4 94.98 24.34 95.82 26.94 95.82C29.5 95.82 31.44 95.16 32.76 93.84C34.08 92.52 34.74 90.66 34.74 88.26H46.98C46.98 93.9 45.24 98.22 41.76 101.22C38.32 104.22 33.44 105.72 27.12 105.72C20.08 105.72 14.74 103.92 11.1 100.32C7.5 96.72 5.7 91.4 5.7 84.36C5.7 77.32 7.5 72 11.1 68.4C14.74 64.8 20.08 63 27.12 63ZM92.7792 105V89.34H78.1992V105H64.9392V63.72H78.1992V78.78H92.7792V63.72H106.039V105H92.7792ZM151.58 105L149.84 99.18H135.38L133.64 105H120.08L135.14 63.72H150.56L165.62 105H151.58ZM138.14 89.94H147.08L142.76 75.24H142.52L138.14 89.94Z" fill="#252525"/>
<path d="M186.068 93.0701C176.092 60.8916 194.091 26.7187 226.269 16.7429C234.71 14.1263 243.673 18.8473 246.29 27.2875C256.265 59.466 238.267 93.6389 206.088 103.615C197.648 106.231 188.685 101.51 186.068 93.0701Z" stroke="#252525" stroke-width="8"/>
<path d="M201 90C201 88.08 201 50.64 231 30" stroke="#252525" stroke-width="8" stroke-linecap="round"/>
</svg>
